<?xml version="1.0" encoding="utf-8"?>
<!-- Generator: Adobe Illustrator 26.5.0, SVG Export Plug-In . SVG Version: 6.00 Build 0)  -->
<svg version="1.1" id="Layer_1" xmlns="http://www.w3.org/2000/svg" xmlns:xlink="http://www.w3.org/1999/xlink" x="0px" y="0px"
	 viewBox="0 0 512 512" style="enable-background:new 0 0 512 512;" xml:space="preserve">
<style type="text/css">
	.st0{fill:#E8D100;}
	.st1{fill:#F7DF1E;}
	.st2{fill:#46483E;}
	.st3{fill:#FFFFFF;}
	.st4{clip-path:url(#SVGID_00000099660272456345034300000006775851823707605653_);fill:#EBEBEB;}
</style>
<g id="XMLID_2_">
	<polyline id="XMLID_4_" class="st0" points="71.54,459.96 30.44,0 481.56,0 440.46,459.96 255.44,512 	"/>
	<polygon id="XMLID_3_" class="st1" points="256.56,37.03 440.46,37.03 405.53,431.06 256.56,472.02 	"/>
	<path id="XMLID_6_" d="M270.17,417.88l14.45-8.7c2.81,4.91,5.33,9.12,11.36,9.12c5.89,0,9.54-2.24,9.54-11.22v-60.46h17.81v60.6
		c0,18.38-10.8,26.79-26.51,26.79C282.65,434.15,274.38,426.85,270.17,417.88"/>
	<path id="XMLID_7_" d="M333.01,416.05l14.45-8.42c3.79,6.17,8.7,10.8,17.53,10.8c7.29,0,12.06-3.65,12.06-8.7
		c0-6.03-4.77-8.28-12.91-11.78l-4.49-1.96c-12.76-5.47-21.32-12.34-21.32-26.79c0-13.33,10.1-23.43,25.95-23.43
		c11.22,0,19.36,3.93,25.25,14.17l-13.89,8.84c-3.09-5.47-6.31-7.57-11.36-7.57c-5.19,0-8.56,3.37-8.56,7.57
		c0,5.33,3.37,7.43,10.94,10.8l4.49,1.96c15.15,6.45,23.57,13.05,23.57,27.91c0,15.99-12.62,24.69-29.46,24.69
		C348.86,434.15,338.2,426.29,333.01,416.05"/>
	<path id="XMLID_8_" class="st2" d="M256.56,334.97l7.43,13.05l112.64-64.95c4.63-2.67,7.43-7.57,7.43-13.05V139.99
		c0-5.33-2.81-10.38-7.43-13.05L264,62c-4.63-2.67-10.38-2.67-15.01,0l-112.5,64.95c-4.63,2.67-7.43,7.57-7.43,13.05v130.03
		c0,5.33,2.81,10.38,7.43,13.05l112.64,64.95c4.63,2.67,10.38,2.67,15.01,0L256.56,334.97l7.43-13.05l-105.07-60.74V148.55
		l97.63-56.39l97.63,56.39v112.64l-105.21,60.88L256.56,334.97l7.43-13.05L256.56,334.97z"/>
	<path id="XMLID_9_" class="st3" d="M256.56,334.97l7.43,13.05l112.64-64.95c4.63-2.67,7.43-7.57,7.43-13.05V139.99
		c0-5.33-2.81-10.38-7.43-13.05L264,62c-4.63-2.67-10.38-2.67-15.01,0l-112.5,64.95c-4.63,2.67-7.43,7.57-7.43,13.05v130.03
		c0,5.33,2.81,10.38,7.43,13.05l112.64,64.95c4.63,2.67,10.38,2.67,15.01,0L256.56,334.97l7.43-13.05l-105.07-60.74V148.55
		l97.63-56.39l97.63,56.39v112.64l-105.21,60.88L256.56,334.97l7.43-13.05L256.56,334.97z"/>
	<g id="XMLID_12_">
		<g>
			<defs>
				<rect id="SVGID_1_" x="100.44" y="48.96" width="155.98" height="311.97"/>
			</defs>
			<clipPath id="SVGID_00000000943401633126593580000009830063643668379526_">
				<use xlink:href="#SVGID_1_"  style="overflow:visible;"/>
			</clipPath>
			<path id="XMLID_14_" style="clip-path:url(#SVGID_00000000943401633126593580000009830063643668379526_);fill:#EBEBEB;" d="
				M256.56,334.97l7.43,13.05l112.64-64.95c4.63-2.67,7.43-7.57,7.43-13.05V139.99c0-5.33-2.81-10.38-7.43-13.05L264,62
				c-4.63-2.67-10.38-2.67-15.01,0l-112.5,64.95c-4.63,2.67-7.43,7.57-7.43,13.05v130.03c0,5.33,2.81,10.38,7.43,13.05l112.64,64.95
				c4.63,2.67,10.38,2.67,15.01,0L256.56,334.97l7.43-13.05l-105.07-60.74V148.55l97.63-56.39l97.63,56.39v112.64l-105.21,60.88
				L256.56,334.97l7.43-13.05L256.56,334.97z"/>
		</g>
	</g>
</g>
</svg>
