<?xml version="1.0" encoding="utf-8"?>
<!-- Generator: Adobe Illustrator 28.0.0, SVG Export Plug-In . SVG Version: 6.00 Build 0)  -->
<svg version="1.1" id="Layer_1" xmlns="http://www.w3.org/2000/svg" xmlns:xlink="http://www.w3.org/1999/xlink" x="0px" y="0px"
	 viewBox="0 0 512 512" style="enable-background:new 0 0 512 512;" xml:space="preserve">
<style type="text/css">
	.st0{fill:#663399;}
	.st1{fill:#FFFFFF;}
</style>
<g>
	<path class="st0" d="M0,0h430.08C475.32,0,512,36.68,512,81.92v348.16c0,45.24-36.68,81.92-81.92,81.92H81.92
		C36.68,512,0,475.32,0,430.08V0z"/>
	<path class="st1" d="M418.07,470.99c-16.58,0-29.27-4.82-38.14-14.52c-8.78-9.74-13.35-23.64-13.76-41.8h35.74
		c0.2,16.06,5.85,24.1,16.94,24.1c5.65,0,9.66-1.79,11.97-5.34c2.26-3.53,3.44-9.18,3.44-16.92c0-6.15-1.54-11.28-4.52-15.33
		c-4.04-4.82-9.23-8.54-15.09-10.82L401.38,384c-11.81-5.64-20.38-12.31-25.67-20.11c-5.14-7.75-7.7-18.62-7.7-32.51
		c0-15.54,4.52-28.16,13.5-37.86c9.24-9.69,21.82-14.51,37.89-14.51c15.51,0,27.53,4.77,35.99,14.25
		c8.63,9.54,13.14,23.18,13.51,41.03h-34.4c0.2-5.84-0.97-11.63-3.44-16.93c-1.95-3.89-5.75-5.84-11.4-5.84
		c-10.06,0-15.09,6-15.09,17.95c0,6.06,1.23,10.77,3.7,14.36c3.55,3.97,8.01,7.03,12.99,8.93l12.68,5.59
		c13.09,6,22.54,13.34,28.34,22.21c5.85,8.82,8.73,20.62,8.73,35.39c0,17.69-4.62,31.28-14.02,40.77
		C447.64,466.22,434.65,470.99,418.07,470.99L418.07,470.99z M302.65,470.99c-16.59,0-29.27-4.82-38.15-14.52
		c-8.78-9.74-13.35-23.64-13.76-41.8h35.73c0.2,16.06,5.85,24.1,16.95,24.1c5.64,0,9.65-1.79,11.9-5.34
		c2.31-3.53,3.44-9.18,3.44-16.92c0-6.15-1.48-11.28-4.46-15.33c-4.04-4.82-9.23-8.54-15.09-10.82L285.97,384
		c-11.81-5.64-20.38-12.31-25.67-20.11c-5.14-7.75-7.7-18.62-7.7-32.51c0-15.54,4.52-28.16,13.5-37.86
		c9.24-9.69,21.82-14.51,37.89-14.51c15.51,0,27.52,4.77,35.94,14.25c8.73,9.54,13.19,23.18,13.55,41.03h-34.4
		c0.2-5.84-0.97-11.63-3.44-16.93c-1.95-3.89-5.75-5.84-11.4-5.84c-10.07,0-15.1,6-15.1,17.95c0,6.06,1.23,10.77,3.7,14.36
		c3.55,3.97,8.01,7.03,12.99,8.93l12.68,5.59c13.09,6,22.54,13.34,28.34,22.21c5.8,8.82,8.72,20.62,8.72,35.39
		c0,17.69-4.67,31.28-14.01,40.77C332.23,466.22,319.24,470.99,302.65,470.99L302.65,470.99z M182.46,470.99
		c-16.23,0-29.11-4.41-38.66-13.24c-9.55-8.77-14.27-21.95-14.27-39.39V332.2c0-17.33,5.03-30.46,15.09-39.49
		c10.22-8.92,23.62-13.43,40.2-13.43c16.07,0,28.75,4.61,38.14,13.74c9.5,9.18,14.27,22.82,14.27,41.03v6.82H199.4v-6.62
		c0-7.02-1.54-12.21-4.52-15.59c-2.64-3.43-6.76-5.4-11.09-5.28c-6.16,0-10.52,2.1-12.99,6.36c-2.63,5.89-3.81,12.33-3.44,18.77
		v74.89c0,15.64,5.5,23.59,16.44,23.75c5.13,0,8.98-1.85,11.65-5.54c2.9-4.66,4.28-10.11,3.95-15.6v-5.59h37.84v5.85
		c0,12.15-2.36,22.31-7.14,30.41c-4.54,7.91-11.36,14.27-19.56,18.26C201.78,469.12,192.17,471.19,182.46,470.99L182.46,470.99z"/>
</g>
</svg>
